#!OML:ASF F:\VICON\USERDATA\INSTALL\rory3\rory3.ASF
:FULLY-SPECIFIED
:DEGREES
19
root 0.3679510743258033 18.925783424699922 -13.87949023219048 3.438173491755766 3.7625777757779653 -4.263972511158475
lfemur -29.27809365277833 -3.458915265863791 -17.788703218186146
ltibia 20.315812173235997
lfoot 7.192908397069068 -7.544762386738753
ltoes -27.097786094922924
rfemur 11.610085668254625 8.844176523099893 34.483889999526134
rtibia 54.3980017138156
rfoot 21.83229017085814 -12.439087433435574
rtoes 20.030888955921935
lowerback 13.769704165769406 1.9954808978770728 5.963067144842613
upperback -1.7726977002254543 3.8350287149071685 1.6185980900024426
thorax -9.39448568060842 1.5732896842236097 -2.4388083849792794
lowerneck -19.672894012221203 -6.112816635096543 -2.209761474919582
upperneck 11.464484782105952 -8.286686722812354 3.9213357213048
head 6.9605338063022995 -3.7192465020773775 0.6646600851505817
lclavicle -1.544432592472505e-15 -3.296202364162074e-15
lhumerus -68.00388553627305 -4.105066977777918 86.3267085863412
lradius 110.6480024253245
lwrist 29.597304473329977
lhand -21.358213465786076 4.418955820691117
lfingers 7.12502
lthumb 5.0284666850493585 34.339296002272505
rclavicle -1.544432592472505e-15 -3.296202364162074e-15
rhumerus -41.16740646181423 18.829289694841155 -95.91120536157186
rradius 124.44998512318439
rwrist -23.44759637353017
rhand -15.404414143982443 43.78068721818231
rfingers 7.12502
rthumb 10.774686041872478 14.077086856321822
20
root 0.38131160700648037 18.818285273582244 -12.887690775909231 2.8068871536903837 4.3718366235336905 -3.6678150416167026
lfemur -27.168094911313425 -4.381093399908548 -18.7381016876035
ltibia 18.764212611795635
lfoot 8.571757768012619 -9.138510226418488
ltoes -19.526494087406327
rfemur 9.034457382014958 7.506419774135232 33.243492192453644
rtibia 63.039098769424015
rfoot 22.63738969180802 -13.317586031411787
rtoes 17.44659044488526
lowerback 14.228901883713503 1.8053923090035977 5.381399118363218
upperback -1.4729115368331276 3.4747804903452435 1.361510146385356
thorax -9.371605917565843 1.428031327518129 -2.330329081679095
lowerneck -19.386495741708885 -6.038397143841797 -2.241740605576238
upperneck 10.408690375659685 -8.170847257278847 4.1771939650699315
head 6.58000925470141 -3.6659769827929702 0.78891215770902
lclavicle -1.5444324506298544e-15 -3.296202317957674e-15
lhumerus -66.75198594357371 -4.714655566847682 86.37970865209725
lradius 110.462002713856
lwrist 29.67930427369692
lhand -22.283009891165985 4.685274960996354
lfingers 7.12502
lthumb 4.135460064153263 34.62489493114715
rclavicle -1.5444324506298544e-15 -3.296202317957674e-15
rhumerus -41.980205803160445 19.162889176767116 -97.40820135896554
rradius 121.89598765640241
rwrist -19.552710713359268
rhand -20.256592187964696 40.632596460794225
rfingers 7.12502
rthumb 6.092097851988063 10.740196667122518
21
root 0.37043724906154263 18.526714059070464 -11.852263401406912 2.2230088669365795 5.1269151722350745 -2.864923700374376
lfemur -26.12256243902499 -2.838279407673772 -20.23428112588148
ltibia 19.172792382320516
lfoot 11.200306948046947 -13.882470314675551
ltoes -13.433055559749969
rfemur 6.693947954049024 5.625036306695965 30.612410478288407
rtibia 72.84356991278011
rfoot 21.897939486653872 -13.213985465719833
rtoes 8.651187023479771
lowerback 15.090680249608369 1.7668386228055597 4.253130912654056
upperback -1.0967374530490241 3.0679462962255717 0.9775874689363439
thorax -8.501187618992066 1.3126026161288618 -2.2853592824457545
lowerneck -18.217569396477266 -5.89794842910437 -2.6025528998452265
upperneck 8.853348961892747 -7.901886234644953 5.401128264673588
head 5.860884656422723 -3.4683074981213693 1.5682148981199344
lclavicle -1.545282872178847e-15 -3.296819018113048e-15
lhumerus -64.17280277942254 -4.348610841494352 86.79721012847376
lradius 109.88249197698926
lwrist 29.078863343497265
lhand -24.43930196184305 4.241633219242178
lfingers 7.12502
lthumb 1.9987500139734655 34.343467415595
rclavicle -1.541693041896323e-15 -3.293420441670156e-15
rhumerus -42.78779660103623 19.53142128557147 -98.85780630306536
rradius 117.66381895201133
rwrist -19.82762235711347
rhand -17.790960794222922 40.9066437382735
rfingers 7.12502
rthumb 6.152834530910394 9.722463317889043
22
root 0.37985013875081114 18.213694284074446 -10.701762907019951 1.3350499797357696 5.896788917065104 -2.7457560973075195
lfemur -25.17338369586654 -1.900259760556434 -20.503557437469876
ltibia 22.33192037425555
lfoot 10.274275226634126 -17.558804377486197
ltoes -10.803949566233513
rfemur 3.7195633657636815 3.638017598570096 28.9006900993282
rtibia 82.09193000589543
rfoot 20.973258710742073 -12.320377946243614
rtoes 12.991234472901281
lowerback 16.228539101650647 1.5854529529976853 3.8058176450838648
upperback -0.8789125451707753 2.781403228508106 0.7613861609136091
thorax -8.591341739879105 1.2185126070598709 -2.1169320107183154
lowerneck -17.668497110871375 -5.937181659708178 -2.7200575090992496
upperneck 8.829132475553603 -8.039740466977737 6.193416633379403
head 5.878561172844786 -3.4157308492271152 1.8152113459620667
lclavicle -1.5445793036324677e-15 -3.2963077642829603e-15
lhumerus -62.12958651714373 -4.330932907234079 87.15294770264374
lradius 109.13101581404827
lwrist 29.30528770644671
lhand -25.90278118022392 4.398109850610957
lfingers 7.12502
lthumb 0.6730383895436656 34.66721863537963
rclavicle -1.5361214588509881e-15 -3.2893124783120654e-15
rhumerus -43.45460556899925 19.237869521971888 -100.33696509072456
rradius 112.7795099084441
rwrist -19.953422523788884
rhand -18.183223551966154 40.09864548147781
rfingers 7.12502
rthumb 6.546235714385084 8.322065880180848
